<svg xmlns="http://www.w3.org/2000/svg" class="icon" style="width: 1em; height: 1em;vertical-align: middle;fill: currentColor;overflow: hidden;" viewBox="0 0 1024 1024" t="1562042033516" p-id="6136" version="1.1" data-spm-anchor-id="a313x.7781069.0.i31"><path fill="#2c2c2c" d="M 814.649 986.453 H 202.524 c -29.5822 0 -52.3378 -23.8933 -52.3378 -52.3378 V 112.64 c 0 -29.5822 23.8933 -52.3378 52.3378 -52.3378 h 612.124 c 29.5822 0 52.3378 23.8933 52.3378 52.3378 v 821.476 c 0 28.4444 -22.7556 52.3378 -52.3378 52.3378 Z M 202.524 69.4044 c -23.8933 0 -43.2356 19.3422 -43.2356 43.2356 v 821.476 c 0 23.8933 19.3422 43.2356 43.2356 43.2356 h 612.124 c 23.8933 0 43.2356 -19.3422 43.2356 -43.2356 V 112.64 c 0 -23.8933 -19.3422 -43.2356 -43.2356 -43.2356 H 202.524 Z" p-id="6137" /><path fill="#2c2c2c" d="M 862.436 288.996 H 154.738 c -2.27556 0 -4.55111 -2.27556 -4.55111 -4.55111 s 2.27556 -4.55111 4.55111 -4.55111 h 707.698 c 2.27556 0 4.55111 2.27556 4.55111 4.55111 s -2.27556 4.55111 -4.55111 4.55111 Z M 490.382 872.676 c -129.707 0 -235.52 -105.813 -235.52 -235.52 s 105.813 -235.52 235.52 -235.52 S 724.764 507.449 724.764 637.156 s -104.676 235.52 -234.382 235.52 Z m 0 -458.524 c -122.88 0 -223.004 100.124 -223.004 223.004 s 100.124 223.004 223.004 223.004 S 713.387 760.036 713.387 637.156 s -100.124 -223.004 -223.004 -223.004 Z" p-id="6138" /><path fill="#2c2c2c" d="M 490.382 770.276 c -75.0933 0 -136.533 -61.44 -136.533 -136.533 s 61.44 -136.533 136.533 -136.533 s 136.533 61.44 136.533 136.533 s -61.44 136.533 -136.533 136.533 Z m 0 -266.24 c -70.5422 0 -128.569 58.0267 -128.569 128.569 s 58.0267 128.569 128.569 128.569 c 70.5422 0 128.569 -58.0267 128.569 -128.569 s -58.0267 -128.569 -128.569 -128.569 Z M 761.173 675.84 c -26.1689 0 -46.6489 -21.6178 -46.6489 -47.7867 c 0 -26.1689 20.48 -47.7867 46.6489 -47.7867 s 46.6489 21.6178 46.6489 47.7867 c 0 26.1689 -20.48 47.7867 -46.6489 47.7867 Z m 0 -87.6089 c -20.48 0 -37.5467 17.0667 -37.5467 38.6844 s 17.0667 38.6844 37.5467 38.6844 s 37.5467 -17.0667 37.5467 -38.6844 c 1.13778 -20.48 -15.9289 -38.6844 -37.5467 -38.6844 Z M 409.6 197.973 H 233.244 c -15.9289 0 -29.5822 -12.5156 -29.5822 -29.5822 v -7.96444 c 0 -15.9289 12.5156 -29.5822 29.5822 -29.5822 H 409.6 c 15.9289 0 29.5822 12.5156 29.5822 29.5822 v 7.96444 c 0 17.0667 -12.5156 29.5822 -29.5822 29.5822 Z m -176.356 -54.6133 c -9.10222 0 -17.0667 7.96444 -17.0667 17.0667 v 7.96444 c 0 9.10222 7.96444 17.0667 17.0667 17.0667 H 409.6 c 9.10222 0 17.0667 -7.96444 17.0667 -17.0667 v -7.96444 c 0 -9.10222 -7.96444 -17.0667 -17.0667 -17.0667 H 233.244 Z" p-id="6139" /></svg>