<svg xmlns="http://www.w3.org/2000/svg" class="icon" style="width: 1em; height: 1em;vertical-align: middle;fill: currentColor;overflow: hidden;" viewBox="0 0 1024 1024" t="1562042085951" p-id="6559" version="1.1"><path class="selected" fill="#1296db" d="M 854.753 279.354 l -685.508 0 c -9.66717 0 -17.5026 8.2192 -17.5026 18.3581 l 0 538.686 c 0 64.7855 50.536 117.792 112.303 117.792 l 495.909 0 c 61.7657 0 112.303 -53.0062 112.303 -117.792 l 0 -538.686 C 872.257 287.574 864.421 279.354 854.753 279.354 Z M 512 893.384 c -152.768 0 -276.612 -123.844 -276.612 -276.612 c 0 -152.769 123.844 -276.612 276.612 -276.612 c 152.768 0 276.612 123.843 276.612 276.612 C 788.612 769.541 664.768 893.384 512 893.384 Z" p-id="6560" data-spm-anchor-id="a313x.7781069.0.i35" /><path fill="#1296db" d="M 756.048 69.81 l -488.098 0 c -63.9147 0 -116.208 52.294 -116.208 116.208 l 0 49.7675 c 0 11.8233 9.58531 21.4086 21.4086 21.4086 l 677.697 0 c 11.8233 0 21.4086 -9.58531 21.4086 -21.4086 l 0 -49.7675 C 872.257 122.104 819.963 69.81 756.048 69.81 Z M 684.981 227.833 c -20.1335 0 -36.4543 -16.3207 -36.4543 -36.4543 s 16.3217 -36.4553 36.4543 -36.4553 c 20.1335 0 36.4543 16.3217 36.4543 36.4553 S 705.113 227.833 684.981 227.833 Z M 780.048 227.833 c -20.1335 0 -36.4543 -16.3207 -36.4543 -36.4543 s 16.3207 -36.4553 36.4543 -36.4553 c 20.1335 0 36.4543 16.3217 36.4543 36.4553 S 800.181 227.833 780.048 227.833 Z" p-id="6561" /><path fill="#1296db" d="M 763.578 616.928 c 0 138.942 -112.635 251.579 -251.578 251.579 c -138.942 0 -251.578 -112.635 -251.578 -251.579 c 0 -210.606 165.594 -132.214 187.792 36.3765 c 7.16314 54.4061 153.155 138.829 254.121 -11.9389 c 21.69 -32.3887 45.708 -92.4383 45.708 -92.4383 S 763.578 562.155 763.578 616.928 Z" p-id="6562" /></svg>