<svg xmlns="http://www.w3.org/2000/svg" class="icon" style="width: 1em; height: 1em;vertical-align: middle;fill: currentColor;overflow: hidden;" viewBox="0 0 1024 1024" t="1562041880728" p-id="3599" version="1.1" data-spm-anchor-id="a313x.7781069.0.i23"><path fill="#707070" d="M 861.696 22.016 H 193.024 c -11.264 0 -20.48 9.216 -20.48 20.48 V 921.6 c 0 11.264 9.216 20.48 20.48 20.48 h 669.184 c 11.264 0 20.48 -9.216 20.48 -20.48 V 42.496 c -0.512 -11.264 -9.728 -20.48 -20.992 -20.48 Z m -17.408 871.936 H 210.432 V 293.376 h 633.856 v 600.576 Z m 0 -638.976 H 210.432 V 64.512 h 633.856 v 190.464 Z" p-id="3600" /><path fill="#707070" d="M 527.36 445.44 c -102.912 0 -185.856 83.456 -185.856 185.856 S 424.96 817.152 527.36 817.152 s 185.856 -83.456 185.856 -185.856 S 630.272 445.44 527.36 445.44 Z m 0 329.728 c -79.36 0 -143.36 -64 -143.36 -143.36 s 64 -143.36 143.36 -143.36 s 143.36 64 143.36 143.36 c 0 78.848 -64 143.36 -143.36 143.36 Z M 333.312 187.392 H 277.504 c -10.752 0 -19.456 -8.704 -19.456 -19.456 c 0 -10.752 8.704 -19.456 19.456 -19.456 H 332.8 c 10.752 0 19.456 8.704 19.456 19.456 c 0.512 10.752 -8.192 19.456 -18.944 19.456 Z M 480.256 187.392 h -47.616 c -10.752 0 -19.456 -8.704 -19.456 -19.456 c 0 -10.752 8.704 -19.456 19.456 -19.456 h 47.616 c 10.752 0 19.456 8.704 19.456 19.456 c 0.512 10.752 -8.704 19.456 -19.456 19.456 Z M 368.128 968.704 l -12.8 -26.624 h -46.08 l 10.24 22.016 H 256 c -10.752 0 -19.456 8.704 -19.456 19.456 s 8.704 19.456 19.456 19.456 h 99.328 c 10.752 0 19.456 -8.704 19.456 -19.456 c -0.512 -6.144 -3.072 -11.264 -6.656 -14.848 Z M 690.176 968.704 l 12.8 -26.624 h 46.08 l -10.24 22.016 h 63.488 c 10.752 0 19.456 8.704 19.456 19.456 s -8.704 19.456 -19.456 19.456 h -99.328 c -10.752 0 -19.456 -8.704 -19.456 -19.456 c 0.512 -6.144 3.072 -11.264 6.656 -14.848 Z" p-id="3601" data-spm-anchor-id="a313x.7781069.0.i24" /></svg>