<svg xmlns="http://www.w3.org/2000/svg" class="icon" style="width: 1em; height: 1em;vertical-align: middle;fill: currentColor;overflow: hidden;" viewBox="0 0 1024 1024" t="1562042659304" p-id="8138" version="1.1" data-spm-anchor-id="a313x.7781069.0.i15"><path fill="#1296db" d="M 462.836 486.849 c 27.1642 -31.4521 17.9225 -72.2494 -13.5644 -99.5149 l -82.7168 -95.0728 c -31.4695 -27.2148 -79.0569 -23.8444 -106.187 7.50577 l -14.348 16.7315 c -27.3342 31.4181 -23.827 78.9035 7.60707 106.152 l 105.948 68.4361 c 31.4695 27.1468 73.2357 30.4485 100.451 -1.08972 L 462.836 486.849 Z M 528.976 571.709 c 21.5122 -8.91748 31.7242 -33.5636 22.8053 -55.0758 c -8.96886 -21.4609 -33.5122 -31.7076 -55.0418 -22.8407 c -21.4789 8.95222 -31.6569 33.5296 -22.7894 55.1279 C 482.869 570.366 507.513 580.577 528.976 571.709 Z M 573.073 507.46 l 1.65123 3.86395 c 15.9131 38.4471 56.5056 48.5404 94.97 32.6779 l 122.1 -31.3841 c 38.3971 -15.8965 56.6764 -59.9094 40.7459 -98.3058 l -8.40735 -20.3552 c -15.9146 -38.3805 -59.9955 -56.693 -98.4092 -40.8132 l -108.534 64.0454 C 578.757 433.151 557.142 468.995 573.073 507.46 Z M 869.15 150.861 c -197.634 -197.634 -517.981 -197.736 -715.478 -0.238784 c -197.531 197.531 -197.429 517.878 0.204775 715.512 s 517.981 197.736 715.512 0.204775 C 1066.89 668.842 1066.78 348.495 869.15 150.861 Z M 207.147 811.775 c -168.19 -168.19 -168.275 -440.831 -0.188133 -608.919 c 168.088 -168.088 440.728 -168.002 608.919 0.188133 c 168.189 168.189 168.275 440.83 0.187409 608.918 C 647.978 980.05 375.337 979.964 207.147 811.775 Z M 541.076 684.909 c 10.246 -40.3371 -5.54774 -79.1423 -45.8175 -89.4903 l -4.1353 -0.968883 c -40.3197 -10.2634 -72.7089 16.2706 -82.9549 56.5396 l -47.8595 116.518 c -10.28 40.2336 14.0238 81.3203 54.2755 91.5142 l 21.3436 5.51445 c 40.3204 10.2974 81.3044 -14.0412 91.465 -54.2929 L 541.076 684.909 Z" p-id="8139" /></svg>