<svg xmlns="http://www.w3.org/2000/svg" class="icon" style="width: 1em; height: 1em;vertical-align: middle;fill: currentColor;overflow: hidden;" viewBox="0 0 1024 1024" t="1562042524138" p-id="7880" version="1.1"><path fill="#17abe3" d="M 941.376 595.693 c -15.633 -99.283 -108.77 -158.96 -225.173 -146.083 c -48.627 5.366 -134.595 45.824 -145.204 20.339 c -18.51 -86.894 90.139 -112.135 169.397 -116.183 c 103.305 -5.291 137.717 -64.237 87.554 -153.447 C 774.318 104.928 639.771 47.324 552 82.173 c -90.306 35.85 -127.715 134.389 -100.112 265.985 c 7.074 33.509 39.706 77.992 -12.949 92.087 c -39.238 10.535 -65.287 -28.484 -75.089 -67.847 c -7.804 -31.46 -15.95 -63.334 -18.899 -95.502 c -10.217 -111.914 -71.212 -140.547 -165.985 -76.334 c -94.038 63.75 -141.129 186.372 -97.012 270.216 c 56.36 107.111 152.837 115.744 258.217 92.453 c 34.02 -7.535 79.916 -39.556 92.746 14.608 c 8.584 36.339 -31.217 60.679 -69.213 75.261 c -31.802 12.241 -62.895 15.998 -96.208 17.656 c -105.185 5.171 -135.523 61.58 -84.067 152.617 c 54.021 95.624 190.958 151.399 277.289 112.94 c 97.331 -43.336 152.473 -156.738 102.137 -289.75 c -4.391 -24.192 -33.604 -54.335 -5.534 -67.163 c 26.848 -12.242 50.676 8.413 63.918 27.411 c 31.021 44.582 44.287 93.062 38.192 151.181 c -7.584 72.233 32.874 107.134 107.988 93.453 c 97.964 -17.876 190.1 -153.131 173.957 -255.752 Z m -440.662 -46.678 c -21.122 0 -38.24 -17.121 -38.24 -38.239 c 0 -21.12 17.118 -38.24 38.24 -38.24 c 21.122 0 38.24 17.12 38.24 38.24 c 0 21.118 -17.118 38.239 -38.24 38.239 Z" p-id="7881" data-spm-anchor-id="a313x.7781069.0.i12" /></svg>