<svg xmlns="http://www.w3.org/2000/svg" class="icon" style="width: 1em; height: 1em;vertical-align: middle;fill: currentColor;overflow: hidden;" viewBox="0 0 1024 1024" t="1562042494713" p-id="7417" version="1.1" data-spm-anchor-id="a313x.7781069.0.i10"><path fill="#8a8a8a" d="M 459.452 528.98 c -3.03206 -41.448 -38.4149 -63.7612 -79.9591 -60.7762 l -125.716 -8.73699 c -41.4961 3.00852 -72.7622 39.0412 -69.7782 80.393 l 1.68538 21.9765 c 2.88777 41.5442 38.945 72.6414 80.4401 69.682 l 123.308 -26.5251 c 41.448 -3.05662 73.3158 -30.2551 70.2592 -71.8003 L 459.452 528.98 Z M 566.224 542.217 c 8.90583 -21.5171 -1.30062 -46.1654 -22.8187 -55.0702 c -21.5171 -8.83318 -46.1173 1.27606 -55.0713 22.7696 c -8.85774 21.5181 1.32416 46.0938 22.8668 55.0958 C 532.672 573.869 557.319 563.664 566.224 542.217 Z M 551.975 465.604 l 3.89982 1.56464 c 38.4384 15.9339 74.2787 -5.63228 90.2607 -44.0472 l 64.146 -108.53 c 15.9104 -38.3914 -2.28607 -82.4386 -40.701 -98.3244 l -20.3382 -8.44842 c -38.3924 -15.8858 -82.5112 2.33519 -98.4451 40.7266 l -31.4585 122.032 C 503.45 409.041 513.511 449.67 551.975 465.604 Z M 509.179 4.09323 c -279.497 0 -506.088 226.447 -506.088 505.751 c 0 279.351 226.592 505.799 506.088 505.799 s 506.088 -226.447 506.088 -505.799 C 1015.27 230.541 788.676 4.09323 509.179 4.09323 Z M 508.41 939.536 c -237.856 0 -430.703 -192.726 -430.703 -430.437 c 0 -237.712 192.846 -430.437 430.703 -430.437 c 237.855 0 430.702 192.725 430.702 430.437 C 939.112 746.81 746.265 939.536 508.41 939.536 Z M 654.824 613.705 c -21.2776 -35.7676 -59.8849 -52.0392 -95.6771 -30.8813 l -3.6092 2.23899 c -35.7676 21.253 -39.9079 62.918 -18.6784 98.6375 l 48.5487 116.232 c 21.1804 35.7185 67.4185 47.5858 103.089 26.3317 l 18.9915 -11.1929 c 35.7922 -21.2295 47.5622 -67.4195 26.2846 -103.066 L 654.824 613.705 Z" p-id="7418" /></svg>